<?xml version="1.0" encoding="UTF-8" standalone="no"?>
<svg width="150px" height="150px" viewBox="0 0 150 150" version="1.1" xmlns="http://www.w3.org/2000/svg"
     xmlns:xlink="http://www.w3.org/1999/xlink">
    <title>A tomato setting the timer</title>
    <g id="Page-1" stroke="none" stroke-width="1" fill="none" fill-rule="evenodd">
        <g id="Tomatoro---Master" transform="translate(-218.000000, -801.000000)">
            <g id="graphic-set-time" transform="translate(218.000000, 801.000000)">
                <circle id="Oval-4" fill="#C6FCE3" cx="75" cy="75" r="75"></circle>
                <g id="Group-9" stroke-width="1" transform="translate(87.000000, 30.000000)">
                    <polygon id="Shape" fill="#5D6D7E" fill-rule="nonzero"
                             points="5.39389791 46.5938363 4.47320419 45.6692313 8.15529883 41.0710345 9.99345516 42.9117417"></polygon>
                    <polygon id="Shape" fill="#5D6D7E" fill-rule="nonzero"
                             points="35.4181383 46.5938363 36.3420632 45.6692313 32.6597985 41.0710345 30.8192613 42.9117417"></polygon>
                    <path d="M37.075183,11.0018988 L24.6803395,3.84381974 L25.0369511,3.22514893 C25.861562,1.79683225 27.2298483,0.68448323 28.9472635,0.223796256 C30.6646786,-0.23672066 32.4082828,0.0426845443 33.8365994,0.867635637 L35.0751315,1.58119878 C36.5034481,2.40666004 37.615457,3.77630673 38.0776745,5.49236146 C38.5373412,7.21147723 38.2565755,8.95474123 37.4329849,10.3808472 L37.075183,11.0018988 Z"
                          id="Shape" fill="#34495E" fill-rule="nonzero"></path>
                    <rect id="Rectangle-path" fill="#5D6D7E" fill-rule="nonzero"
                          transform="translate(30.552407, 7.987024) rotate(29.959498) translate(-30.552407, -7.987024) "
                          x="29.9017488" y="7.33636623" width="1.30131549" height="1.30131549"></rect>
                    <path d="M16.1349278,3.84347962 L3.74059457,11.0015587 L3.38143219,10.3806771 C2.55733138,8.95440111 2.27656571,7.21130717 2.73878321,5.4921914 C3.19844984,3.77596662 4.31079886,2.40597981 5.73826525,1.58102872 L6.97764756,0.867465579 C8.4073247,0.0425144863 10.1487181,-0.237911066 11.868344,0.222775908 C13.5845688,0.684313172 14.9531951,1.79700231 15.7786564,3.22497888 L16.1349278,3.84347962 Z"
                          id="Shape" fill="#34495E" fill-rule="nonzero"></path>
                    <rect id="Rectangle-path" fill="#5D6D7E" fill-rule="nonzero"
                          transform="translate(10.261232, 7.989565) rotate(-29.985075) translate(-10.261232, -7.989565) "
                          x="9.61098167" y="7.33888958" width="1.30049974" height="1.30135007"></rect>
                    <rect id="Rectangle-path" fill="#5D6D7E" fill-rule="nonzero" x="20.0151399" y="2.89744727" width="1"
                          height="2.60205662"></rect>
                    <path d="M18.1305578,1.98814744 C18.1305578,2.48964832 18.5402274,2.89846762 19.0417283,2.89846762 L21.7743894,2.89846762 C22.2745298,2.89846762 22.6841994,2.49015849 22.6841994,1.98814744 L22.6841994,1.85975369 C22.6841994,1.35655223 22.27504,0.947222756 21.7743894,0.947222756 L19.0417283,0.947222756 C18.5402274,0.947222756 18.1305578,1.35604206 18.1305578,1.85975369 L18.1305578,1.98814744 Z"
                          id="Shape" fill="#34495E" fill-rule="nonzero"></path>
                    <circle id="Oval" fill="#34495E" fill-rule="nonzero" cx="20.4069534" cy="25.79677"
                            r="20.3003271"></circle>
                    <path d="M38.1565892,25.5754887 C38.1565892,35.2820561 30.2868177,43.1540383 20.5780395,43.1540383 C10.8706218,43.1540383 3,35.2820561 3,25.5754887 C3,15.8677308 10.8706218,8 20.5780395,8 C30.2868177,8 38.1565892,15.868071 38.1565892,25.5754887 Z"
                          id="Shape" fill="#FFFFFF" fill-rule="nonzero"></path>
                    <path d="M30.5510553,18.653553 L19.5713505,25.9585734 C19.2297676,26.1907379 19.1349944,26.6557471 19.3565017,26.9999129 C19.5780091,27.3488399 20.0343408,27.4474644 20.3730383,27.2182473 L31.3545187,19.9125468 L30.5510553,18.653553 Z"
                          id="Shape" stroke="#283A4D" fill="#283A4D" fill-rule="nonzero" stroke-linecap="round"
                          stroke-linejoin="round"></path>
                    <path d="M18.3302017,24.9388485 L11.0317798,20.7349476 L10.3117701,22.0438204 L17.6113017,26.2447739 C17.9664237,26.4472377 18.41077,26.3195926 18.6089725,25.9615967 C18.8105042,25.5963457 18.6842139,25.1413123 18.3302017,24.9388485 Z"
                          id="Shape" stroke="#283A4D" fill="#283A4D" fill-rule="nonzero" stroke-linecap="round"
                          stroke-linejoin="round"></path>
                    <path d="M23.3602913,26.5895893 C23.3602913,28.5024842 21.8441175,30.0552461 19.9714842,30.0552461 C18.0988508,30.0552461 16.5836537,28.5024842 16.5836537,26.5895893 C16.5836537,24.6846752 18.0988508,23.1254289 19.9714842,23.1254289 C21.8441175,23.1254289 23.3602913,24.6846752 23.3602913,26.5895893 Z"
                          id="Shape" fill="#FF8E31" fill-rule="nonzero"></path>
                </g>
                <g id="icon-tomato-active" transform="translate(26.000000, 42.000000)" stroke-width="1">
                    <g id="Group">
                        <path d="M38,72.656369 C58.9868205,72.656369 76,59.8483259 76,41.5072582 C76,23.1682391 64.5299413,11.9529959 38,11.7740161 C11.4700587,11.5990403 0,23.1682391 0,41.5072582 C0,59.8483259 17.0131795,72.656369 38,72.656369 Z"
                              id="Oval-3" fill="#da3b1b"></path>
                        <path d="M47.4211511,14.8179693 C47.1833969,14.7016858 46.9385668,14.5941157 46.6887834,14.4939106 C46.471019,14.406672 46.5175438,14.212382 46.7650275,14.1586488 C46.7825406,14.1548108 46.7998768,14.1510764 46.8175669,14.1471346 C50.519031,13.3258885 52.7948548,11.2815385 53.5748087,10.4751261 C53.7456945,10.2983668 53.6008131,10.0736833 53.2731935,10.0075023 C51.7785619,9.70584972 47.7646917,9.0567987 44.0632275,9.87804481 C41.3619583,10.4773045 39.4201225,11.728001 38.2647859,12.6736218 C38.1340565,12.7805694 37.8658755,12.7805694 37.735323,12.6736218 C36.5799864,11.728001 34.6381506,10.4774082 31.9368814,9.87804481 C28.2354172,9.0567987 24.2215469,9.70584972 22.7269153,10.0075023 C22.3991189,10.0735796 22.2542375,10.2983668 22.4253002,10.4751261 C23.2049003,11.2814348 25.4810778,13.3258885 29.182542,14.1471346 C29.2000551,14.1509727 29.2173914,14.1548108 29.2350814,14.1586488 C29.4823882,14.212382 29.5290899,14.406672 29.3113255,14.4939106 C29.0615421,14.594012 28.8167119,14.7017895 28.5789578,14.8179693 C25.539455,16.3042412 24.5297074,18.6727536 24.2431288,19.584454 C24.1803291,19.7842418 24.4426724,19.9688847 24.7892203,19.9684698 C26.3700024,19.9668101 30.5250392,19.8098636 33.564542,18.3235917 C33.5664879,18.3226581 33.5686107,18.3216208 33.5705566,18.3206872 C33.7861982,18.2150881 34.1088646,18.3035714 34.1083339,18.4682978 C34.1083339,18.4698538 34.1083339,18.4713061 34.1083339,18.4729658 C34.1083339,20.7936577 36.5638885,22.7652915 37.5739898,23.4783452 C37.7954691,23.6346693 38.2051705,23.6346693 38.4266498,23.4783452 C39.436928,22.7652915 41.8923057,20.7937614 41.8923057,18.4729658 C41.8923057,18.4714098 41.8923057,18.4699575 41.8923057,18.4682978 C41.8921288,18.3034677 42.2144413,18.2149843 42.4300829,18.3206872 C42.4320288,18.3216208 42.4341516,18.3226581 42.4360975,18.3235917 C45.4756004,19.8098636 49.6306372,19.9667063 51.2114192,19.9684698 C51.5579671,19.968781 51.8203104,19.7843455 51.7575108,19.584454 C51.4702245,18.6728573 50.460477,16.3042412 47.4211511,14.8179693 Z"
                              id="Shape" fill="#00A155" fill-rule="nonzero"></path>
                        <path d="M38.0918836,15.8496716 C37.0606548,15.8496716 36.2248039,15.0247514 36.2248039,14.0071588 C36.2248039,9.22335337 38.4719412,4.99217323 41.7445582,2.68674949 C42.5839049,2.09547821 43.7501515,2.28757583 44.3490213,3.11600732 C44.9478955,3.94422711 44.7531952,5.09483437 43.9141023,5.68586454 C41.5435442,7.35595119 39.9589632,10.4462116 39.9589632,14.0071588 C39.9589632,15.0247223 39.1230146,15.8496716 38.0918836,15.8496716 Z"
                              id="Shape" fill="#006539" fill-rule="nonzero"></path>
                    </g>
                </g>
                <g id="sunglasses-black-tool" stroke-width="1" transform="translate(22.000000, 67.000000)"
                   fill="#000000">
                    <path d="M81.255198,1.01232067 C72.4733809,-0.349354883 55.7276609,-0.618853168 43.6598371,2.6434945 C42.8419227,2.6434945 39.2689285,2.6434945 38.4510142,2.6434945 C26.3831903,-0.618853168 9.63747034,-0.335170763 0.855653196,1.01232067 C-0.234899259,1.28181895 -0.234899259,5.89165805 0.583015082,6.16115633 C2.23319314,6.96965119 3.05110748,8.60082502 3.05110748,8.60082502 C3.05110748,8.60082502 3.59638371,10.2319989 4.97392365,16.1893294 C6.33711422,22.1750281 9.91010845,23.2672054 9.91010845,23.2672054 C9.91010845,23.2672054 14.301017,24.3451985 19.2372018,24.3451985 C24.1733866,24.3451985 27.2011046,24.0758421 30.4871114,22.4446683 C33.7731181,20.8134944 35.150658,16.4730118 35.150658,16.4730118 C35.150658,16.4730118 36.8008361,12.6716675 37.8913886,9.15400571 C38.1640267,8.06182845 43.6598371,8.06182845 43.9324752,9.15400571 C45.0231711,12.6858517 46.6733492,16.4730118 46.6733492,16.4730118 C46.6733492,16.4730118 48.0508891,20.8134944 51.3368959,22.4446683 C54.637252,24.0758421 57.6506206,24.3451985 62.5866619,24.3451985 C67.5228467,24.3451985 71.9137553,23.2672054 71.9137553,23.2672054 C71.9137553,23.2672054 75.4867495,22.4587106 76.8499401,16.2176976 C78.22748,9.97668469 78.7727562,8.62919326 78.7727562,8.62919326 C78.7727562,8.62919326 79.5905271,6.99801943 81.2407052,6.18952457 C82.3600999,5.90584217 82.3600999,1.01232067 81.255198,1.01232067 Z"
                          id="Shape" fill-rule="nonzero"></path>
                </g>
            </g>
        </g>
    </g>
</svg>
