<?xml version="1.0" encoding="UTF-8" standalone="no"?>
<svg width="24px" height="20px" viewBox="0 0 24 20" version="1.1" xmlns="http://www.w3.org/2000/svg" xmlns:xlink="http://www.w3.org/1999/xlink">
    <!-- Generator: Sketch 45.1 (43504) - http://www.bohemiancoding.com/sketch -->
    <title>icon-twitter</title>
    <desc>Created with Sketch.</desc>
    <defs></defs>
    <g id="Page-1" stroke="none" stroke-width="1" fill="none" fill-rule="evenodd">
        <g id="Tomatoro---Master" transform="translate(-720.000000, -1843.000000)" fill="#FFFFFF">
            <g id="icon-twitter" transform="translate(720.000000, 1843.000000)">
                <path d="M24,2.32272321 C23.1166667,2.71394635 22.1688627,2.9792694 21.1730196,3.09772209 C22.1898431,2.48911357 22.9681961,1.5237751 23.337098,0.377033896 C22.3832941,0.940644498 21.3304706,1.34989815 20.2086667,1.57175197 C19.3103529,0.61390008 18.0325882,0.0172857831 16.6153333,0.0172857831 C13.8963529,0.0172857831 11.6917647,2.22081157 11.6917647,4.93699213 C11.6917647,5.32221815 11.7352549,5.69846811 11.8192549,6.05825542 C7.72803922,5.85286426 4.10023529,3.89369124 1.67219608,0.916656064 C1.24776471,1.64218859 1.00631373,2.4875849 1.00631373,3.39001253 C1.00631373,5.09738538 1.87615686,6.6038747 3.19592157,7.48525365 C2.38905882,7.45828627 1.63019608,7.23643245 0.965843137,6.86766908 L0.965843137,6.92912964 C0.965843137,9.31252948 2.66352941,11.301688 4.91458824,11.7544109 C4.50215686,11.8653378 4.0672549,11.9267984 3.61733333,11.9267984 C3.29941176,11.9267984 2.99196078,11.8953234 2.6905098,11.8353523 C3.31737255,13.7915463 5.13505882,15.2140761 7.28866667,15.2530769 C5.60447059,16.5722056 3.48086275,17.3561806 1.17431373,17.3561806 C0.776901961,17.3561806 0.38545098,17.3321921 3.92156862e-05,17.2887229 C2.17913725,18.6873035 4.76615686,19.5027534 7.54662745,19.5027534 C16.6034118,19.5027534 21.554,12.0047608 21.554,5.50213141 L21.5374902,4.86506602 C22.5047843,4.17547695 23.3416078,3.30907116 24,2.32272321 Z" id="Shape"></path>
            </g>
        </g>
    </g>
</svg>