<?xml version="1.0" encoding="UTF-8" standalone="no"?>
<svg width="24px" height="24px" viewBox="0 0 24 24" version="1.1" xmlns="http://www.w3.org/2000/svg" xmlns:xlink="http://www.w3.org/1999/xlink">
    <!-- Generator: Sketch 46.1 (44463) - http://www.bohemiancoding.com/sketch -->
    <title>icon-settings-inactive</title>
    <desc>Created with Sketch.</desc>
    <defs>
        <path d="M19.831488,9.52341392 L19.2862104,8.20004731 C19.2862104,8.20004731 20.5548564,5.27637792 20.4427993,5.1639684 L18.7629439,3.48906657 C18.6468848,3.37359133 15.7834266,4.70819889 15.7834266,4.70819889 L14.462754,4.16352368 C14.462754,4.16352368 13.2961599,1.2 13.1360784,1.2 L10.7658714,1.2 C10.6007873,1.2 9.52123757,4.16965511 9.52123757,4.16965511 L8.20256604,4.71637413 C8.20256604,4.71637413 5.27907726,3.44716847 5.1670202,3.5605999 L3.49016626,5.23754554 C3.37410716,5.35302077 4.70878684,8.21741969 4.70878684,8.21741969 L4.16350916,9.53874249 C4.16350916,9.53874249 1.2,10.7047358 1.2,10.8621091 L1.2,13.2349719 C1.2,13.4005204 4.17051273,14.4806737 4.17051273,14.4806737 L4.71579041,15.7999527 C4.71579041,15.7999527 3.44714435,18.7215783 3.55820091,18.8339878 L5.23705586,20.5129772 C5.35111394,20.6264087 8.21557266,19.2918011 8.21557266,19.2918011 L9.53724572,19.8385201 C9.53724572,19.8385201 10.7038398,22.8 10.8649218,22.8 L13.2351289,22.8 C13.3992124,22.8 14.4797627,19.8303449 14.4797627,19.8303449 L15.8024363,19.2836259 C15.8024363,19.2836259 18.719922,20.5528315 18.8329796,20.4414439 L20.5118345,18.7644983 C20.6288941,18.6469792 19.2912129,15.7846241 19.2912129,15.7846241 L19.8354901,14.4633013 C19.8354901,14.4633013 22.7999997,13.2952642 22.7999997,13.1358471 L22.7999997,10.7650281 C22.8010003,10.6005015 19.831488,9.52341392 19.831488,9.52341392 L19.831488,9.52341392 Z M16.9377367,12.138924 C16.9377367,14.7855867 14.7839084,16.9403416 12.1377367,16.9403416 C9.49433886,16.9403416 7.33773672,14.7855867 7.33773672,12.138924 C7.33773672,9.49226125 9.49433886,7.34034158 12.1377367,7.34034158 C14.7852952,7.34175918 16.9377367,9.49226125 16.9377367,12.138924 L16.9377367,12.138924 Z" id="path-1"></path>
    </defs>
    <g id="Homepage" stroke="none" stroke-width="1" fill="none" fill-rule="evenodd">
        <g id="Tomatoro---Master" transform="translate(-710.000000, -576.000000)">
            <g id="icon-settings-inactive" transform="translate(710.000000, 576.000000)">
                <mask id="mask-2" fill="white">
                    <use xlink:href="#path-1"></use>
                </mask>
                <use id="Mask" stroke="#979797" stroke-width="1" xlink:href="#path-1"></use>
            </g>
        </g>
    </g>
</svg>