<?xml version="1.0" encoding="UTF-8" standalone="no"?>
<svg width="24px" height="24px" viewBox="0 0 24 24" version="1.1" xmlns="http://www.w3.org/2000/svg" xmlns:xlink="http://www.w3.org/1999/xlink">
    <!-- Generator: Sketch 45.2 (43514) - http://www.bohemiancoding.com/sketch -->
    <title>icon-tomato-active</title>
    <desc>Created with Sketch.</desc>
    <defs></defs>
    <g id="Page-1" stroke="none" stroke-width="1" fill="none" fill-rule="evenodd">
        <g id="Tomatoro---Master" transform="translate(-710.000000, -421.000000)">
            <g id="icon-tomato-active" transform="translate(710.000000, 421.000000)">
                <g id="Group">
                    <path d="M12,23.2500381 C18.627417,23.2500381 24,19.1514643 24,13.2823226 C24,7.41383653 20.3778762,3.82495868 12,3.76768515 C3.62212379,3.71169291 0,7.41383653 0,13.2823226 C0,19.1514643 5.372583,23.2500381 12,23.2500381 Z" id="tomato--body" fill="#E54728"></path>
                    <path d="M14.9751003,4.74175019 C14.9000201,4.70453945 14.8227053,4.67011703 14.7438263,4.6380514 C14.6750586,4.61013504 14.6897507,4.54796224 14.7679034,4.53076763 C14.7734339,4.52953944 14.7789085,4.52834445 14.7844948,4.52708307 C15.9533782,4.26428431 16.6720594,3.61009234 16.9183606,3.35204036 C16.9723246,3.29547738 16.9265725,3.22357867 16.8231137,3.20240075 C16.3511248,3.10587191 15.0835868,2.89817558 13.9147034,3.16097434 C13.061671,3.35273743 12.4484597,3.75296032 12.0836166,4.05555897 C12.0423336,4.08978222 11.9576449,4.08978222 11.9164178,4.05555897 C11.5515747,3.75296032 10.9383633,3.35277063 10.085331,3.16097434 C8.91644753,2.89817558 7.64890955,3.10587191 7.17692064,3.20240075 C7.07340597,3.22354547 7.02765393,3.29547738 7.08167373,3.35204036 C7.32786324,3.61005914 8.04665615,4.26428431 9.21553957,4.52708307 C9.22107004,4.52831126 9.22654464,4.52953944 9.23213097,4.53076763 C9.31022784,4.54796224 9.32497575,4.61013504 9.25620805,4.6380514 C9.17732908,4.67008383 9.1000143,4.70457264 9.02493404,4.74175019 C8.06509104,5.21735718 7.7462234,5.97528114 7.65572487,6.26702527 C7.6358934,6.33095737 7.71873866,6.3900431 7.82817484,6.38991033 C8.32736917,6.38937922 9.63948606,6.33915634 10.5993291,5.86354935 C10.5999436,5.8632506 10.6006139,5.86291866 10.6012284,5.86261991 C10.6693258,5.82882818 10.7712204,5.85714286 10.7710528,5.9098553 C10.7710528,5.91035322 10.7710528,5.91081794 10.7710528,5.91134904 C10.7710528,6.65397046 11.5464911,7.28489328 11.8654705,7.51307045 C11.9354113,7.56309416 12.0647907,7.56309416 12.1347315,7.51307045 C12.4537667,7.28489328 13.2291492,6.65400366 13.2291492,5.91134904 C13.2291492,5.91085113 13.2291492,5.91038641 13.2291492,5.9098553 C13.2290933,5.85710967 13.3308762,5.82879498 13.3989736,5.86261991 C13.3995881,5.86291866 13.4002584,5.8632506 13.4008729,5.86354935 C14.3607159,6.33915634 15.6728328,6.38934602 16.1720271,6.38991033 C16.2814633,6.39000991 16.3643086,6.33099056 16.3444771,6.26702527 C16.2537551,5.97531433 15.9348875,5.21735718 14.9751003,4.74175019 Z" id="tomato--cap-base" fill="#00A155" fill-rule="nonzero"></path>
                    <path d="M12.0290159,5.07189491 C11.7033647,5.07189491 11.4394118,4.80792045 11.4394118,4.48229081 C11.4394118,2.95147308 12.1490341,1.59749543 13.1824921,0.859759837 C13.4475489,0.670553026 13.8158373,0.732024266 14.0049541,0.997122343 C14.1940723,1.26215267 14.132588,1.630347 13.8676113,1.81947665 C13.1190139,2.35390438 12.61862,3.3427877 12.61862,4.48229081 C12.61862,4.80791115 12.3546362,5.07189491 12.0290159,5.07189491 Z" id="tomato--cap-top" fill="#006539" fill-rule="nonzero"></path>
                </g>
            </g>
        </g>
    </g>
</svg>