<?xml version="1.0" encoding="UTF-8" standalone="no"?>
<svg width="24px" height="24px" viewBox="0 0 24 24" version="1.1" xmlns="http://www.w3.org/2000/svg" xmlns:xlink="http://www.w3.org/1999/xlink">
    <!-- Generator: Sketch 45.2 (43514) - http://www.bohemiancoding.com/sketch -->
    <title>icon-tomato-inactive</title>
    <desc>Created with Sketch.</desc>
    <defs>
        <path d="M14.9751003,3.74175019 C14.9000201,3.70453945 14.8227053,3.67011703 14.7438263,3.6380514 C14.6750586,3.61013504 14.6897507,3.54796224 14.7679034,3.53076763 C14.7734339,3.52953944 14.7789085,3.52834445 14.7844948,3.52708307 C15.9533782,3.26428431 16.6720594,2.61009234 16.9183606,2.35204036 C16.9723246,2.29547738 16.9265725,2.22357867 16.8231137,2.20240075 C16.3511248,2.10587191 15.0835868,1.89817558 13.9147034,2.16097434 C13.061671,2.35273743 12.4484597,2.75296032 12.0836166,3.05555897 C12.0423336,3.08978222 11.9576449,3.08978222 11.9164178,3.05555897 C11.5515747,2.75296032 10.9383633,2.35277063 10.085331,2.16097434 C8.91644753,1.89817558 7.64890955,2.10587191 7.17692064,2.20240075 C7.07340597,2.22354547 7.02765393,2.29547738 7.08167373,2.35204036 C7.32786324,2.61005914 8.04665615,3.26428431 9.21553957,3.52708307 C9.22107004,3.52831126 9.22654464,3.52953944 9.23213097,3.53076763 C9.31022784,3.54796224 9.32497575,3.61013504 9.25620805,3.6380514 C9.17732908,3.67008383 9.1000143,3.70457264 9.02493404,3.74175019 C8.06509104,4.21735718 7.7462234,4.97528114 7.65572487,5.26702527 C7.6358934,5.33095737 7.71873866,5.3900431 7.82817484,5.38991033 C8.32736917,5.38937922 9.63948606,5.33915634 10.5993291,4.86354935 C10.5999436,4.8632506 10.6006139,4.86291866 10.6012284,4.86261991 C10.6693258,4.82882818 10.7712204,4.85714286 10.7710528,4.9098553 C10.7710528,4.91035322 10.7710528,4.91081794 10.7710528,4.91134904 C10.7710528,5.65397046 11.5464911,6.28489328 11.8654705,6.51307045 C11.9354113,6.56309416 12.0647907,6.56309416 12.1347315,6.51307045 C12.4537667,6.28489328 13.2291492,5.65400366 13.2291492,4.91134904 C13.2291492,4.91085113 13.2291492,4.91038641 13.2291492,4.9098553 C13.2290933,4.85710967 13.3308762,4.82879498 13.3989736,4.86261991 C13.3995881,4.86291866 13.4002584,4.8632506 13.4008729,4.86354935 C14.3607159,5.33915634 15.6728328,5.38934602 16.1720271,5.38991033 C16.2814633,5.39000991 16.3643086,5.33099056 16.3444771,5.26702527 C16.2537551,4.97531433 15.9348875,4.21735718 14.9751003,3.74175019 Z" id="path-1"></path>
    </defs>
    <g id="Page-1" stroke="none" stroke-width="1" fill="none" fill-rule="evenodd">
        <g id="Tomatoro---Master" transform="translate(-710.000000, -465.000000)">
            <g id="icon-tomatoro-inactive" transform="translate(710.000000, 465.000000)">
                <g id="Group" transform="translate(0.000000, 1.000000)">
                    <path d="M12,21.7500381 C18.5270911,21.7500381 23.5,17.7235571 23.5,12.2823226 C23.5,6.43551609 19.7867629,3.32092934 11.9966584,3.26767399 C4.25391203,3.21592653 0.5,6.3918477 0.5,12.2823226 C0.5,17.7235571 5.47290889,21.7500381 12,21.7500381 Z" id="tomato--body" stroke="#979797"></path>
                    <g id="Shape" fill-rule="nonzero">
                        <use fill="#FFFFFF" fill-rule="evenodd" xlink:href="#path-1"></use>
                        <path stroke="#979797" stroke-width="1" d="M10.3803363,4.41405875 C10.3797453,4.41434708 10.3797732,4.41433344 10.3799581,4.41424297 L10.3789746,4.41473237 C10.3794282,4.41450729 10.3798821,4.41428275 10.3803363,4.41405875 Z M13.6272476,5.50277056 C13.4344005,6.05124974 12.9848421,6.51978344 12.4256046,6.91975567 C12.1817059,7.09419909 11.8184961,7.09419909 11.5745688,6.91973523 C11.0152278,6.51961889 10.5656683,6.05106216 10.3728778,5.50254781 C9.60277426,5.7827096 8.70450575,5.88897825 7.82878148,5.88990996 C7.4339115,5.89038905 7.02849577,5.6014145 7.17817299,5.1188895 C7.33558791,4.61142403 7.64764304,4.1101214 8.15757844,3.70201148 C7.56629099,3.43835131 7.08710386,3.08202547 6.72008495,2.69737143 C6.3323308,2.29136235 6.64448127,1.80083629 7.07673682,1.71254035 C8.06786536,1.50983965 9.17488535,1.44379864 10.195013,1.67315281 C10.8944071,1.83040498 11.4963213,2.11966283 12.0000083,2.48729451 C12.5036447,2.11967691 13.105585,1.83038727 13.8050268,1.67315159 C14.825149,1.44379864 15.932169,1.50983965 16.9233841,1.71255806 C17.3555087,1.80101356 17.6674769,2.29117977 17.2800532,2.69726274 C16.912699,3.08214294 16.4335667,3.43844245 15.8424991,3.70202816 C16.3521385,4.10992179 16.6640696,4.61098053 16.8220511,5.11896072 C16.9716569,5.60150608 16.5663897,5.89026939 16.1714619,5.88991001 C15.2946419,5.88891883 14.3957566,5.7824969 13.6272476,5.50277056 Z"></path>
                    </g>
                    <path d="M12.0290159,3.82189491 C11.8414266,3.82189491 11.6894118,3.66983996 11.6894118,3.48229081 C11.6894118,1.88638801 12.4821837,0.666838903 13.3277409,0.0632365888 C13.4803981,-0.0457354514 13.6925201,-0.0103616977 13.801452,0.142335675 C13.9103839,0.294992895 13.87497,0.50707481 13.7223529,0.616006698 C12.9831579,1.14372207 12.36862,2.16715362 12.36862,3.48229081 C12.36862,3.66983996 12.216565,3.82189491 12.0290159,3.82189491 Z" id="Shape" stroke="#979797" stroke-width="0.5" fill="#979797" fill-rule="nonzero"></path>
                </g>
            </g>
        </g>
    </g>
</svg>