<?xml version="1.0" encoding="utf-8"?>
<svg version="1.1" id="Tomatoro_Logo" xmlns="http://www.w3.org/2000/svg" xmlns:xlink="http://www.w3.org/1999/xlink"
     x="0px"
     y="0px" viewBox="0 0 246 48" style="enable-background:new 0 0 246 48;" xml:space="preserve">
<style type="text/css">
	.st0{fill-rule:evenodd;clip-rule:evenodd;fill:#172B4D;}
	.st1{fill-rule:evenodd;clip-rule:evenodd;fill:#da3b1b;}
	.st2{fill:#00A155;}
	.st3{fill:#006539;}
</style>
    <path id="Tomatoro" class="st0" d="M0,4.3c0-1.2,0.2-2.2,0.7-3S2,0,2.9,0h26.8c1,0,1.7,0.4,2.2,1.3s0.7,1.9,0.7,3
	c0,1.2-0.3,2.3-0.8,3.1s-1.2,1.3-2.1,1.3h-8.6v33.7c0,1-0.5,1.7-1.4,2.2c-1,0.5-2.1,0.8-3.4,0.8s-2.5-0.3-3.4-0.8s-1.4-1.3-1.4-2.2
	V8.7H2.9C2,8.7,1.3,8.3,0.8,7.4S0,5.5,0,4.3z M28.7,32.8v-4.3c0-3.5,1.4-6.6,4.2-9.2s6.1-3.9,9.9-3.9c3.8,0,7.1,1.3,9.9,3.8
	c2.8,2.6,4.2,5.6,4.2,9.2v4.3c0,3.5-1.4,6.5-4.3,9.2s-6.1,4-9.9,4c-3.8,0-7.1-1.3-9.9-4C30.1,39.4,28.7,36.3,28.7,32.8z M38.3,32.8
	c0,1.2,0.4,2.3,1.3,3.3c0.9,1,1.9,1.5,3.2,1.5c1.2,0,2.3-0.5,3.2-1.5s1.3-2.1,1.3-3.3v-4.3c0-1.2-0.5-2.3-1.4-3.2
	c-0.9-1-2-1.4-3.2-1.4c-1.2,0-2.2,0.5-3.1,1.4c-0.9,1-1.3,2-1.3,3.2V32.8z M61.1,42.4V18.7c0-0.9,0.4-1.6,1.3-2.1s2-0.8,3.4-0.8
	c1.2,0,2.2,0.3,3,0.8c0.8,0.5,1.2,1.2,1.2,2.1v1.4c1.8-3.1,4.5-4.7,8.2-4.7c1.7,0,3.1,0.6,4.4,1.7c1.3,1.1,2.3,2.6,2.9,4.5
	c1-2,2.4-3.6,4-4.6s3.4-1.6,5.3-1.6c3.1,0,5.8,1.2,8,3.5c2.2,2.4,3.3,5.5,3.3,9.5v13.9c0,0.7-0.5,1.4-1.4,2c-1,0.6-2.1,0.9-3.4,0.9
	c-1.2,0-2.3-0.3-3.3-0.9c-1-0.6-1.5-1.3-1.5-2V28.5c0-1.5-0.4-2.6-1.2-3.5c-0.8-0.8-1.8-1.2-2.9-1.2c-1.1,0-2,0.4-2.8,1.2
	c-0.8,0.8-1.2,2-1.2,3.5v14c0,1-0.5,1.7-1.4,2.2c-1,0.5-2.1,0.7-3.4,0.7c-1.2,0-2.3-0.2-3.3-0.7s-1.5-1.2-1.5-2.2V28.6
	c0-1.4-0.4-2.6-1.3-3.4s-1.8-1.3-2.9-1.3c-1.1,0-2,0.4-2.8,1.2c-0.8,0.8-1.1,2-1.1,3.4v13.9c0,0.7-0.5,1.4-1.5,2
	c-1,0.6-2.1,0.9-3.4,0.9c-1.4,0-2.5-0.3-3.4-0.9S61.1,43.2,61.1,42.4z M109.6,37.7c0-3.4,1.3-5.9,3.8-7.3c2.5-1.4,6.1-2.1,10.8-2.1
	h2.2v-0.6c0-1.2-0.4-2.3-1.1-3.2c-0.7-0.9-1.9-1.4-3.5-1.4c-2,0-3.6,0.3-4.9,1c-1.3,0.7-2.1,1-2.4,1c-1,0-1.8-0.5-2.4-1.5
	c-0.6-1-0.9-2.1-0.9-3.3c0-1.4,1.1-2.5,3.4-3.5s4.7-1.5,7.2-1.5c4.8,0,8.3,1.2,10.6,3.5s3.5,5.2,3.5,8.7v14.8c0,0.8-0.4,1.5-1.3,2.1
	s-2,0.9-3.4,0.9c-1.2,0-2.2-0.3-3-0.9c-0.8-0.6-1.2-1.3-1.2-2.1V41c-2.9,3.3-6,5-9.4,5c-2.3,0-4.2-0.7-5.7-2.1
	C110.4,42.5,109.6,40.4,109.6,37.7z M119.3,36.4c0,1.7,0.8,2.6,2.4,2.6c1,0,2.1-0.6,3.1-1.7s1.6-2.5,1.6-4V33h-0.2
	c-1.4,0-2.5,0.1-3.4,0.2s-1.7,0.4-2.4,1C119.7,34.7,119.3,35.4,119.3,36.4z M140.4,35.5l-2-28.9c-0.1-0.8,0.4-1.6,1.3-2.2
	c1-0.6,2-1,3.2-1.1c1.3-0.1,2.4,0.1,3.4,0.6s1.5,1.1,1.6,2l0.7,9.9l7-0.5c0.7-0.1,1.3,0.2,1.8,0.9c0.5,0.7,0.7,1.4,0.8,2.3
	c0.1,0.9-0.1,1.8-0.5,2.5s-0.9,1.1-1.7,1.1l-7,0.5l0.9,12.2c0.1,0.9,0.3,1.5,0.7,1.8c0.4,0.3,1.1,0.5,2,0.4l2.7-0.2
	c1.3-0.1,2.4,0.2,3.1,1s1.2,1.7,1.2,2.7c0.1,1.1-0.2,2.1-0.9,2.9c-0.6,0.8-1.6,1.3-3,1.4l-2.7,0.2C145.2,45.7,140.9,42.5,140.4,35.5
	z M194.6,41.2l2.5-23.5c0.1-0.9,0.6-1.5,1.5-2c0.9-0.4,2.1-0.6,3.4-0.4c1.2,0.1,2.2,0.5,2.9,1.1c0.8,0.6,1.1,1.4,1,2.2l-0.2,2.3
	c0.8-1.4,2-2.6,3.5-3.6c1.5-1,3-1.4,4.5-1.2l1.8,0.2c0.9,0.1,1.7,0.6,2.2,1.5c0.6,0.9,0.8,1.9,0.7,3c-0.1,1.2-0.6,2.1-1.3,2.9
	c-0.8,0.8-1.6,1.1-2.5,1l-1.8-0.2c-1.8-0.2-3.4,0.5-5,2.1s-2.4,3.7-2.7,6.4l-1,9.3c-0.1,0.7-0.6,1.4-1.7,1.9s-2.2,0.7-3.5,0.6
	c-1.3-0.1-2.4-0.6-3.2-1.2C194.9,42.7,194.5,42,194.6,41.2z M217.5,32.8v-4.3c0-3.5,1.4-6.6,4.2-9.2c2.8-2.6,6.1-3.9,9.9-3.9
	c3.8,0,7.1,1.3,9.9,3.8s4.2,5.6,4.2,9.2v4.3c0,3.5-1.4,6.5-4.3,9.2c-2.8,2.6-6.1,4-9.9,4s-7.1-1.3-9.9-4S217.5,36.3,217.5,32.8z
	 M227.2,32.8c0,1.2,0.4,2.3,1.3,3.3s1.9,1.5,3.2,1.5s2.3-0.5,3.2-1.5s1.3-2.1,1.3-3.3v-4.3c0-1.2-0.5-2.3-1.4-3.2
	c-0.9-1-2-1.4-3.2-1.4s-2.2,0.5-3.1,1.4c-0.9,1-1.3,2-1.3,3.2V32.8z"/>
    <g id="icon-tomato-active" transform="translate(155.257217, 7.321388)">
	<g id="Group">
		<path id="Oval-3" class="st1" d="M20.5,39.7c11.3,0,20.5-7,20.5-17c0-10-6.2-16.2-20.5-16.3C6.2,6.3,0,12.7,0,22.7
			C0,32.7,9.2,39.7,20.5,39.7z"/>
        <path id="Shape" class="st2" d="M25.6,8.1C25.5,8,25.3,8,25.2,7.9c-0.1,0-0.1-0.2,0-0.2c0,0,0,0,0,0c2-0.4,3.2-1.6,3.6-2
			c0.1-0.1,0-0.2-0.2-0.3c-0.8-0.2-3-0.5-5-0.1c-1.5,0.3-2.5,1-3.1,1.5c-0.1,0.1-0.2,0.1-0.3,0c-0.6-0.5-1.7-1.2-3.1-1.5
			c-2-0.4-4.2-0.1-5,0.1c-0.2,0-0.3,0.2-0.2,0.3c0.4,0.4,1.6,1.6,3.6,2c0,0,0,0,0,0c0.1,0,0.2,0.1,0,0.2C15.7,8,15.5,8,15.4,8.1
			c-1.6,0.8-2.2,2.1-2.3,2.6c0,0.1,0.1,0.2,0.3,0.2c0.9,0,3.1-0.1,4.7-0.9c0,0,0,0,0,0c0.1-0.1,0.3,0,0.3,0.1c0,0,0,0,0,0
			c0,1.3,1.3,2.3,1.9,2.7c0.1,0.1,0.3,0.1,0.5,0c0.5-0.4,1.9-1.5,1.9-2.7c0,0,0,0,0,0c0-0.1,0.2-0.1,0.3-0.1c0,0,0,0,0,0
			c1.6,0.8,3.9,0.9,4.7,0.9c0.2,0,0.3-0.1,0.3-0.2C27.8,10.2,27.2,8.9,25.6,8.1z"/>
        <path id="Shape_00000170258798857379081290000015679019143093195393_" class="st3" d="M20.5,8.7c-0.6,0-1-0.5-1-1
			c0-2.6,1.2-4.9,3-6.2c0.5-0.3,1.1-0.2,1.4,0.2c0.3,0.5,0.2,1.1-0.2,1.4c-1.3,0.9-2.1,2.6-2.1,4.5C21.6,8.2,21.1,8.7,20.5,8.7z"/>
	</g>
</g>
</svg>
