<?xml version="1.0" encoding="UTF-8" standalone="no"?>
<svg width="260px" height="45px" viewBox="0 0 260 45" version="1.1" xmlns="http://www.w3.org/2000/svg" xmlns:xlink="http://www.w3.org/1999/xlink">
    <!-- Generator: Sketch 45.1 (43504) - http://www.bohemiancoding.com/sketch -->
    <title>logo-softwaredevtools-white</title>
    <desc>Created with Sketch.</desc>
    <defs></defs>
    <g id="Page-1" stroke="none" stroke-width="1" fill="none" fill-rule="evenodd">
        <g id="Tomatoro---Master" transform="translate(-70.000000, -1624.000000)">
            <g id="logo-softwaredevtools-white" transform="translate(70.000000, 1622.000000)">
                <g id="Group-11">
                    <path d="M87.4995605,31.1403996 C87.4995605,35.6769307 86.2369186,39.1722383 83.7115967,41.6264273 C81.1862748,44.0806162 77.6364649,45.3076923 73.0620605,45.3076923 L64.1702148,45.3076923 L64.1702148,18.1258263 L73.6824219,18.1258263 C78.0939023,18.1258263 81.4995892,19.24135 83.899585,21.4724309 C86.2995807,23.7035118 87.4995605,26.9261358 87.4995605,31.1403996 Z M79.792041,31.4006911 C79.792041,28.9093175 79.2938771,27.062506 78.2975342,25.8602013 C77.3011913,24.6578966 75.7879008,24.0567533 73.7576172,24.0567533 L71.595752,24.0567533 L71.595752,39.2838041 L73.2500488,39.2838041 C75.5059195,39.2838041 77.1601998,38.6361806 78.2129395,37.3409142 C79.2656791,36.0456478 79.792041,34.0655933 79.792041,31.4006911 Z M105.522236,45.3076923 L89.2048536,45.3076923 L89.2048536,18.1258263 L105.522236,18.1258263 L105.522236,24.0195688 L96.6303907,24.0195688 L96.6303907,28.2957858 L104.864277,28.2957858 L104.864277,34.1895282 L96.6303907,34.1895282 L96.6303907,39.3209886 L105.522236,39.3209886 L105.522236,45.3076923 Z M125.348574,18.1258263 L133.657656,18.1258263 L124.653018,45.3076923 L115.911563,45.3076923 L106.944522,18.1258263 L115.291201,18.1258263 L119.032168,31.9026818 C119.80919,34.9642205 120.235293,37.0961103 120.310488,38.298415 C120.398217,37.4307724 120.573671,36.3462355 120.836856,35.0447716 C121.100041,33.7433078 121.33189,32.7207444 121.532412,31.9770508 L125.348574,18.1258263 Z M155.114092,45.3076923 L147.688555,45.3076923 L147.688555,24.1311223 L140.977373,24.1311223 L140.977373,18.1258263 L161.806475,18.1258263 L161.806475,24.1311223 L155.114092,24.1311223 L155.114092,45.3076923 Z M188.861475,31.6795748 C188.861475,36.2532906 187.72729,39.7300061 185.458887,42.1098257 C183.190484,44.4896453 179.869391,45.6795373 175.495508,45.6795373 C171.184289,45.6795373 167.878861,44.483448 165.579126,42.0912335 C163.279392,39.699019 162.129541,36.2161061 162.129541,31.6423903 C162.129541,27.1182541 163.273125,23.6632293 165.560327,21.2772123 C167.84753,18.8911953 171.171756,17.6982046 175.533106,17.6982046 C179.906988,17.6982046 183.221815,18.8818992 185.477686,21.2493239 C187.733557,23.6167486 188.861475,27.0934641 188.861475,31.6795748 Z M169.949854,31.6795748 C169.949854,36.9350098 171.798387,39.5626878 175.495508,39.5626878 C177.3754,39.5626878 178.769633,38.9243603 179.678247,37.6476863 C180.586862,36.3710122 181.041162,34.3816616 181.041162,31.6795748 C181.041162,28.9650931 180.580596,26.9602491 179.659449,25.6649827 C178.738301,24.3697163 177.362868,23.7220928 175.533106,23.7220928 C171.810919,23.7220928 169.949854,26.3745603 169.949854,31.6795748 Z M217.721163,31.6795748 C217.721163,36.2532906 216.586978,39.7300061 214.318575,42.1098257 C212.050171,44.4896453 208.729078,45.6795373 204.355196,45.6795373 C200.043976,45.6795373 196.738549,44.483448 194.438814,42.0912335 C192.139079,39.699019 190.989229,36.2161061 190.989229,31.6423903 C190.989229,27.1182541 192.132813,23.6632293 194.420015,21.2772123 C196.707217,18.8911953 200.031443,17.6982046 204.392793,17.6982046 C208.766676,17.6982046 212.081503,18.8818992 214.337373,21.2493239 C216.593244,23.6167486 217.721163,27.0934641 217.721163,31.6795748 Z M198.809541,31.6795748 C198.809541,36.9350098 200.658074,39.5626878 204.355196,39.5626878 C206.235088,39.5626878 207.62932,38.9243603 208.537935,37.6476863 C209.44655,36.3710122 209.90085,34.3816616 209.90085,31.6795748 C209.90085,28.9650931 209.440283,26.9602491 208.519136,25.6649827 C207.597989,24.3697163 206.222555,23.7220928 204.392793,23.7220928 C200.670607,23.7220928 198.809541,26.3745603 198.809541,31.6795748 Z M220.164053,45.3076923 L220.164053,18.1258263 L227.58959,18.1258263 L227.58959,39.3767653 L238.173331,39.3767653 L238.173331,45.3076923 L220.164053,45.3076923 Z M259.423936,37.0527344 C259.423936,38.7384399 258.991567,40.2351009 258.126817,41.5427622 C257.262067,42.8504235 256.01509,43.8667895 254.38585,44.5918908 C252.75661,45.3169921 250.845415,45.6795373 248.652208,45.6795373 C246.822446,45.6795373 245.287224,45.5524915 244.046495,45.2983962 C242.805766,45.0443009 241.514926,44.6011901 240.173936,43.9690505 L240.173936,37.4245793 C241.590122,38.1434832 243.062682,38.7043437 244.591661,39.1071777 C246.12064,39.5100118 247.524271,39.7114258 248.802598,39.7114258 C249.905468,39.7114258 250.71381,39.5224065 251.227647,39.1443622 C251.741484,38.766318 251.998399,38.2798257 251.998399,37.6848708 C251.998399,37.313024 251.895006,36.9876629 251.688218,36.7087778 C251.48143,36.4298927 251.149321,36.1479131 250.69188,35.8628305 C250.23444,35.577748 249.015661,34.9951967 247.035508,34.1151593 C245.243344,33.3094912 243.899242,32.5286246 243.00316,31.7725361 C242.107078,31.0164475 241.442859,30.148818 241.010484,29.1696214 C240.578109,28.1904248 240.361924,27.0315196 240.361924,25.6928711 C240.361924,23.1891026 241.283058,21.2369361 243.125352,19.8363131 C244.967646,18.4356901 247.499197,17.7353891 250.720079,17.7353891 C253.564982,17.7353891 256.466239,18.3861113 259.423936,19.6875751 L257.149278,25.3582106 C254.580092,24.1930906 252.361852,23.6105394 250.494493,23.6105394 C249.529481,23.6105394 248.827665,23.7778679 248.389024,24.11253 C247.950382,24.4471922 247.731065,24.8624149 247.731065,25.3582106 C247.731065,25.8911911 248.009911,26.3683873 248.567613,26.7898137 C249.125314,27.2112401 250.638605,27.979712 253.10753,29.0952524 C255.476194,30.1488184 257.121075,31.2798355 258.042222,32.4883376 C258.963369,33.6968397 259.423936,35.2182901 259.423936,37.0527344 Z" id="DEV-TOOLS" fill="#FFFFFF"></path>
                    <text id="SOFTWARE" font-family="DINAlternate-Bold, DIN Alternate" font-size="15" font-weight="bold" letter-spacing="17.3999996" fill="#FFFFFF">
                        <tspan x="64" y="14">SOFTWAR</tspan>
                        <tspan x="249.330271" y="14">E</tspan>
                    </text>
                    <polygon id="Rectangle-6-Copy-2" fill-opacity="0.75" fill="#FFFFFF" points="14 25 28 25 28 47 0 47"></polygon>
                    <polygon id="Rectangle-6-Copy-3" fill="#FFFFFF" transform="translate(42.000000, 36.000000) scale(-1, 1) translate(-42.000000, -36.000000) " points="42 25 56 25 56 47 28 47"></polygon>
                    <polygon id="Rectangle-6" fill="#FFFFFF" points="14 3 28 3 28 25 0 25"></polygon>
                    <polygon id="Rectangle-6-Copy" fill-opacity="0.75" fill="#FFFFFF" transform="translate(42.000000, 14.000000) scale(-1, 1) translate(-42.000000, -14.000000) " points="42 3 56 3 56 25 28 25"></polygon>
                    <circle id="Oval" fill="#888888" cx="28" cy="25" r="9"></circle>
                </g>
            </g>
        </g>
    </g>
</svg>