<?xml version="1.0" encoding="utf-8"?>
<!-- Generator: Adobe Illustrator 21.0.0, SVG Export Plug-In . SVG Version: 6.00 Build 0)  -->
<svg version="1.1" id="Layer_1" xmlns="http://www.w3.org/2000/svg" xmlns:xlink="http://www.w3.org/1999/xlink" x="0px" y="0px"
	 viewBox="0 0 260 45" style="enable-background:new 0 0 260 45;" xml:space="preserve">
<style type="text/css">
	.st0{fill:#FFFFFF;}
	.st1{enable-background:new    ;}
	.st2{opacity:0.75;}
</style>
<title>logo-softwaredevtools-white</title>
<desc>Created with Sketch.</desc>
<path id="DEV-TOOLS" class="st0" d="M87.5,29.1c0,4.5-1.3,8-3.8,10.5s-6.1,3.7-10.6,3.7h-8.9V16.1h9.5c4.4,0,7.8,1.1,10.2,3.3
	C86.3,21.7,87.5,24.9,87.5,29.1z M79.8,29.4c0-2.5-0.5-4.3-1.5-5.5c-1-1.2-2.5-1.8-4.5-1.8h-2.2v15.2h1.7c2.3,0,3.9-0.6,5-1.9
	C79.3,34,79.8,32.1,79.8,29.4z M105.5,43.3H89.2V16.1h16.3V22h-8.9v4.3h8.2v5.9h-8.2v5.1h8.9V43.3z M125.3,16.1h8.3l-9,27.2h-8.7
	l-9-27.2h8.3l3.7,13.8c0.8,3.1,1.2,5.2,1.3,6.4c0.1-0.9,0.3-2,0.5-3.3c0.3-1.3,0.5-2.3,0.7-3.1L125.3,16.1z M155.1,43.3h-7.4V22.1
	H141v-6h20.8v6h-6.7V43.3z M188.9,29.7c0,4.6-1.1,8.1-3.4,10.4c-2.3,2.4-5.6,3.6-10,3.6c-4.3,0-7.6-1.2-9.9-3.6
	c-2.3-2.4-3.4-5.9-3.4-10.4c0-4.5,1.1-8,3.4-10.4s5.6-3.6,10-3.6c4.4,0,7.7,1.2,9.9,3.6C187.7,21.6,188.9,25.1,188.9,29.7z
	 M169.9,29.7c0,5.3,1.8,7.9,5.5,7.9c1.9,0,3.3-0.6,4.2-1.9c0.9-1.3,1.4-3.3,1.4-6c0-2.7-0.5-4.7-1.4-6c-0.9-1.3-2.3-1.9-4.1-1.9
	C171.8,21.7,169.9,24.4,169.9,29.7z M217.7,29.7c0,4.6-1.1,8.1-3.4,10.4c-2.3,2.4-5.6,3.6-10,3.6c-4.3,0-7.6-1.2-9.9-3.6
	c-2.3-2.4-3.4-5.9-3.4-10.4c0-4.5,1.1-8,3.4-10.4s5.6-3.6,10-3.6c4.4,0,7.7,1.2,9.9,3.6S217.7,25.1,217.7,29.7z M198.8,29.7
	c0,5.3,1.8,7.9,5.5,7.9c1.9,0,3.3-0.6,4.2-1.9c0.9-1.3,1.4-3.3,1.4-6c0-2.7-0.5-4.7-1.4-6c-0.9-1.3-2.3-1.9-4.1-1.9
	C200.7,21.7,198.8,24.4,198.8,29.7z M220.2,43.3V16.1h7.4v21.3h10.6v5.9H220.2z M259.4,35.1c0,1.7-0.4,3.2-1.3,4.5
	c-0.9,1.3-2.1,2.3-3.7,3c-1.6,0.7-3.5,1.1-5.7,1.1c-1.8,0-3.4-0.1-4.6-0.4c-1.2-0.3-2.5-0.7-3.9-1.3v-6.5c1.4,0.7,2.9,1.3,4.4,1.7
	s2.9,0.6,4.2,0.6c1.1,0,1.9-0.2,2.4-0.6s0.8-0.9,0.8-1.5c0-0.4-0.1-0.7-0.3-1s-0.5-0.6-1-0.8S249,33,247,32.1
	c-1.8-0.8-3.1-1.6-4-2.3c-0.9-0.8-1.6-1.6-2-2.6s-0.6-2.1-0.6-3.5c0-2.5,0.9-4.5,2.8-5.9s4.4-2.1,7.6-2.1c2.8,0,5.7,0.7,8.7,2
	l-2.3,5.7c-2.6-1.2-4.8-1.7-6.7-1.7c-1,0-1.7,0.2-2.1,0.5c-0.4,0.3-0.7,0.7-0.7,1.2c0,0.5,0.3,1,0.8,1.4c0.6,0.4,2.1,1.2,4.5,2.3
	c2.4,1.1,4,2.2,4.9,3.4C259,31.7,259.4,33.2,259.4,35.1z"/>
<g class="st1">
	<path class="st0" d="M65.2,9.4c0.8,0.7,1.8,1.1,2.9,1.1c1.3,0,2-0.5,2-1.5c0-0.8-0.4-1.3-1.3-1.4c-0.4-0.1-0.9-0.1-1.4-0.2
		c-0.9-0.2-1.6-0.5-2-1c-0.5-0.5-0.7-1.2-0.7-2c0-0.9,0.3-1.7,0.9-2.3c0.6-0.6,1.4-0.9,2.5-0.9c1.3,0,2.4,0.4,3.4,1.1l-0.9,1.3
		C69.8,3.1,69,2.9,68,2.8c-0.5,0-0.9,0.1-1.2,0.4c-0.3,0.3-0.5,0.6-0.5,1.2c0,0.3,0.1,0.6,0.3,0.8c0.2,0.3,0.6,0.4,1.1,0.5
		c0.3,0,0.7,0.1,1.2,0.2c1,0.1,1.7,0.5,2.1,1.1c0.5,0.6,0.7,1.2,0.7,2c-0.1,2-1.3,3.1-3.6,3.1c-1.5,0-2.8-0.5-3.9-1.5L65.2,9.4z"/>
	<path class="st0" d="M90.7,6.7c0-1.2,0-2.1,0.1-2.5c0.1-0.4,0.2-0.8,0.3-1c0.3-0.5,0.7-0.9,1.2-1.3c0.5-0.4,1.2-0.6,2-0.6
		c0.8,0,1.5,0.2,2.1,0.6c0.5,0.4,0.9,0.8,1.2,1.3c0.2,0.3,0.3,0.6,0.4,1c0.1,0.4,0.1,1.3,0.1,2.5c0,1.2,0,2-0.1,2.5
		c-0.1,0.4-0.2,0.8-0.4,1c-0.2,0.5-0.6,0.9-1.2,1.3c-0.5,0.4-1.2,0.6-2.1,0.6c-0.8,0-1.5-0.2-2-0.6c-0.6-0.4-1-0.8-1.2-1.3
		C91.1,10,91.1,9.9,91,9.7c-0.1-0.2-0.1-0.3-0.1-0.6C90.8,8.7,90.7,7.9,90.7,6.7z M92.3,6.7c0,1.1,0,1.8,0.1,2.1
		c0.1,0.4,0.2,0.7,0.4,0.9c0.2,0.2,0.4,0.4,0.7,0.5c0.3,0.2,0.6,0.2,1,0.2c0.4,0,0.7-0.1,1-0.2c0.3-0.1,0.5-0.3,0.6-0.5
		c0.2-0.2,0.3-0.5,0.4-0.9c0.1-0.4,0.1-1.1,0.1-2.1c0-1.1,0-1.8-0.1-2.2c-0.1-0.4-0.2-0.7-0.4-0.9c-0.2-0.2-0.4-0.4-0.6-0.6
		c-0.3-0.1-0.6-0.2-1-0.2c-0.4,0-0.7,0.1-1,0.2c-0.3,0.1-0.5,0.3-0.7,0.6c-0.2,0.2-0.3,0.5-0.4,0.9C92.4,4.9,92.3,5.6,92.3,6.7z"/>
	<path class="st0" d="M117.6,1.3h6.6v1.5h-5V6h4.3v1.4h-4.3V12h-1.6V1.3z"/>
	<path class="st0" d="M144.9,2.8H142V1.3h7.2v1.4h-2.8V12h-1.6V2.8z"/>
	<path class="st0" d="M167.1,1.3h1.7l1.6,7.6h0l2-7.6h1.1l2,7.6h0l1.6-7.6h1.7L176.3,12h-1.3l-2-7.7h0l-2,7.7h-1.3L167.1,1.3z"/>
	<path class="st0" d="M202.6,9.6h-3.9l-0.8,2.4h-1.7L200,1.3h1.3l3.8,10.7h-1.7L202.6,9.6z M202.2,8.2l-1.5-4.7h0l-1.5,4.7H202.2z"
		/>
	<path class="st0" d="M223.9,1.3h4c0.9,0,1.6,0.2,2.1,0.7c0.7,0.5,1,1.3,1,2.3c0,1.4-0.7,2.4-2,3l2.4,4.7h-1.9l-2.1-4.6h-2V12h-1.6
		V1.3z M225.4,6h2.4c0.6,0,1-0.2,1.3-0.5c0.3-0.3,0.4-0.7,0.4-1.2c0-0.6-0.2-1-0.5-1.2c-0.3-0.2-0.6-0.3-1.2-0.3h-2.5V6z"/>
</g>
<g class="st1">
	<path class="st0" d="M250.4,1.3h6.6v1.5h-5v3.1h4.3v1.4H252v3.1h5V12h-6.6V1.3z"/>
</g>
<g>
	<g>
		<path class="st0" d="M37,23c0,5-4,9-9,9v13h14l14-22H37z M28,1H14L0,23h19c0-5,4-9,9-9V1z"/>
	</g>
</g>
<g>
	<g class="st2">
		<path class="st0" d="M19,23H0l14,22h14V32C23,32,19,28,19,23z M42,1H28v13c5,0,9,4,9,9h19L42,1z"/>
	</g>
</g>
</svg>
