<?xml version="1.0" encoding="UTF-8" standalone="no"?>
<svg width="246px" height="48px" viewBox="0 0 246 48" version="1.1" xmlns="http://www.w3.org/2000/svg" xmlns:xlink="http://www.w3.org/1999/xlink">
    <!-- Generator: Sketch 45.1 (43504) - http://www.bohemiancoding.com/sketch -->
    <title>logo-tomatoro</title>
    <desc>Created with Sketch.</desc>
    <defs></defs>
    <g id="Page-1" stroke="none" stroke-width="1" fill="none" fill-rule="evenodd">
        <g id="Tomatoro---Master" transform="translate(-120.000000, -26.000000)">
            <g id="logo-tomatoro" transform="translate(120.000000, 26.000000)">
                <g id="Group-2">
                    <path d="M0,4.28353476 C0,3.12469831 0.248318372,2.12107822 0.744962567,1.27264439 C1.24160676,0.424210553 1.96586868,0 2.91777005,0 L29.7364225,0 C30.6883238,0 31.4125858,0.424210553 31.9092299,1.27264439 C32.4058741,2.12107822 32.6541925,3.12469831 32.6541925,4.28353476 C32.6541925,5.52514525 32.3955275,6.57015173 31.8781898,7.41858556 C31.3608521,8.26701939 30.6469368,8.69122995 29.7364225,8.69122995 L21.1693529,8.69122995 L21.1693529,42.4007861 C21.1693529,43.3526875 20.6934094,44.087296 19.741508,44.6046337 C18.7896066,45.1219714 17.6514808,45.3806364 16.3270963,45.3806364 C15.0027117,45.3806364 13.8645859,45.1219714 12.9126845,44.6046337 C11.9607831,44.087296 11.4848396,43.3526875 11.4848396,42.4007861 L11.4848396,8.69122995 L2.91777005,8.69122995 C2.0072557,8.69122995 1.29334038,8.26701939 0.776002674,7.41858556 C0.258664971,6.57015173 0,5.52514525 0,4.28353476 Z M28.6652086,32.8404332 L28.6652086,28.4948182 C28.6652086,24.9769218 30.0516528,21.9246751 32.8245829,19.3379866 C35.597513,16.7512981 38.9084246,15.4579733 42.7574171,15.4579733 C46.5650226,15.4579733 49.8759342,16.7409515 52.6902513,19.3069465 C55.5045684,21.8729415 56.9117059,24.9355348 56.9117059,28.4948182 L56.9117059,32.8404332 C56.9117059,36.3169425 55.4942218,39.3795358 52.6592112,42.0283048 C49.8242006,44.6770738 46.5236356,46.0014385 42.7574171,46.0014385 C38.9911986,46.0014385 35.7009802,44.6770738 32.8866631,42.0283048 C30.072346,39.3795358 28.6652086,36.3169425 28.6652086,32.8404332 Z M38.2876417,32.8404332 C38.2876417,34.0820436 38.7221989,35.1891297 39.5913262,36.1617246 C40.4604535,37.1343195 41.5158066,37.6206096 42.7574171,37.6206096 C43.9990276,37.6206096 45.0647273,37.1343195 45.9545481,36.1617246 C46.844369,35.1891297 47.2892727,34.0820436 47.2892727,32.8404332 L47.2892727,28.4948182 C47.2892727,27.2945947 46.8340224,26.2185484 45.923508,25.2666471 C45.0129937,24.3147457 43.9576406,23.8388021 42.7574171,23.8388021 C41.5571936,23.8388021 40.5121872,24.3147457 39.6223663,25.2666471 C38.7325455,26.2185484 38.2876417,27.2945947 38.2876417,28.4948182 L38.2876417,32.8404332 Z M61.1173102,42.4007861 L61.1173102,18.7482246 C61.1173102,17.8790973 61.5622139,17.1755285 62.4520348,16.6374973 C63.3418556,16.0994661 64.4903281,15.8304545 65.8974866,15.8304545 C67.0563231,15.8304545 68.0495966,16.0994661 68.8773369,16.6374973 C69.7050772,17.1755285 70.1189412,17.8790973 70.1189412,18.7482246 L70.1189412,20.1760695 C71.8985829,17.0306563 74.630085,15.4579733 78.3135294,15.4579733 C79.9690101,15.4579733 81.4485737,16.0270362 82.7522647,17.1651791 C84.0559557,18.3033221 85.0181894,19.8035789 85.6389946,21.6659947 C86.67367,19.6380309 88.0187279,18.0963876 89.6742085,17.0410187 C91.3296892,15.9856498 93.088611,15.4579733 94.9510267,15.4579733 C98.0550529,15.4579733 100.714129,16.6374855 102.928334,18.9965455 C105.14254,21.3556054 106.249626,24.5216646 106.249626,28.4948182 L106.249626,42.4007861 C106.249626,43.1457524 105.773682,43.8286279 104.821781,44.4494332 C103.869879,45.0702384 102.731753,45.3806364 101.407369,45.3806364 C100.165758,45.3806364 99.0586724,45.0702384 98.0860775,44.4494332 C97.1134827,43.8286279 96.6271925,43.1457524 96.6271925,42.4007861 L96.6271925,28.4948182 C96.6271925,27.0048856 96.2133286,25.8460665 95.3855882,25.0183262 C94.5578479,24.1905859 93.5852676,23.7767219 92.4678182,23.7767219 C91.3917558,23.7767219 90.4605619,24.1905859 89.6742085,25.0183262 C88.8878552,25.8460665 88.4946845,27.0048856 88.4946845,28.4948182 L88.4946845,42.4628663 C88.4946845,43.4147677 88.0187409,44.1390296 87.0668396,44.6356738 C86.1149382,45.132318 84.9768123,45.3806364 83.6524278,45.3806364 C82.4108173,45.3806364 81.3037312,45.132318 80.3311364,44.6356738 C79.3585415,44.1390296 78.8722513,43.4147677 78.8722513,42.4628663 L78.8722513,28.5568984 C78.8722513,27.1083528 78.4480408,25.9598804 77.5996069,25.1114465 C76.7511731,24.2630127 75.7682462,23.8388021 74.6507968,23.8388021 C73.5747344,23.8388021 72.6538871,24.2423195 71.8882273,25.0493663 C71.1225675,25.8564131 70.7397433,27.0048856 70.7397433,28.4948182 L70.7397433,42.4007861 C70.7397433,43.1457524 70.2534532,43.8286279 69.2808583,44.4494332 C68.3082634,45.0702384 67.1804841,45.3806364 65.8974866,45.3806364 C64.5317151,45.3806364 63.3935892,45.080585 62.4830749,44.4804733 C61.5725605,43.8803615 61.1173102,43.1871394 61.1173102,42.4007861 Z M109.648187,37.7447701 C109.648187,34.3096477 110.900126,31.8885436 113.40404,30.481385 C115.907955,29.0742265 119.498224,28.3706578 124.174957,28.3706578 L126.409845,28.3706578 L126.409845,27.7498556 C126.409845,26.5082451 126.037367,25.4321988 125.292401,24.5216845 C124.547435,23.6111701 123.367922,23.1559198 121.753829,23.1559198 C119.767252,23.1559198 118.132489,23.4973575 116.849492,24.1802433 C115.566494,24.8631291 114.780153,25.2045668 114.490444,25.2045668 C113.497155,25.2045668 112.710814,24.7182767 112.131396,23.7456818 C111.551977,22.7730869 111.262273,21.6660009 111.262273,20.4243904 C111.262273,19.0586188 112.410745,17.8894532 114.707725,16.9168583 C117.004704,15.9442634 119.394768,15.4579733 121.877989,15.4579733 C126.637496,15.4579733 130.18638,16.6167923 132.524746,18.9344652 C134.863112,21.2521381 136.032278,24.1491858 136.032278,27.6256952 L136.032278,42.4007861 C136.032278,43.2285264 135.587374,43.9320951 134.697553,44.5115134 C133.807733,45.0909316 132.679953,45.3806364 131.314182,45.3806364 C130.113958,45.3806364 129.099992,45.0909316 128.272251,44.5115134 C127.444511,43.9320951 127.030647,43.2285264 127.030647,42.4007861 L127.030647,41.0350214 C124.174943,44.3459827 121.029577,46.0014385 117.594455,46.0014385 C115.318169,46.0014385 113.424741,45.2978698 111.914115,43.8907112 C110.403489,42.4835527 109.648187,40.4349261 109.648187,37.7447701 Z M119.332701,36.3790053 C119.332701,38.11726 120.139735,38.9863743 121.753829,38.9863743 C122.788504,38.9863743 123.823164,38.4069648 124.85784,37.2481283 C125.892515,36.0892919 126.409845,34.7649272 126.409845,33.2749947 L126.409845,33.0266738 L126.161524,33.0266738 C124.795753,33.0266738 123.667973,33.0887534 122.778152,33.2129144 C121.888332,33.3370755 121.091643,33.6578201 120.388064,34.1751578 C119.684485,34.6924955 119.332701,35.427104 119.332701,36.3790053 Z M140.432137,35.52556 L138.409795,6.60472188 C138.352055,5.77899789 138.799125,5.0528208 139.751019,4.42616881 C140.702914,3.79951682 141.777494,3.44433447 142.974794,3.36061112 C144.254666,3.27111374 145.399185,3.4711215 146.408386,3.9606404 C147.417586,4.4501593 147.951048,5.10777089 148.008789,5.93349488 L148.701668,15.8421332 L155.699644,15.3527871 C156.442796,15.3008209 157.044611,15.6010093 157.505109,16.2533615 C157.965607,16.9057137 158.227609,17.6860262 158.291123,18.5943226 C158.357524,19.5439052 158.207392,20.3634089 157.840722,21.0528582 C157.474053,21.7423075 156.91915,22.1130097 156.175999,22.1649759 L149.178023,22.6543221 L150.031131,34.854333 C150.094645,35.7626294 150.324456,36.3792432 150.720572,36.7041927 C151.116687,37.0291423 151.789526,37.1584145 152.739109,37.0920133 L155.402055,36.9058019 C156.723214,36.8134175 157.762858,37.1452212 158.52102,37.9012228 C159.279183,38.6572245 159.695788,39.5719322 159.770851,40.6453734 C159.8488,41.7601008 159.564273,42.7342084 158.917261,43.5677254 C158.270249,44.4012424 157.286178,44.8641862 155.96502,44.9565705 L153.302073,45.1427819 C145.209978,45.7086363 140.920042,42.5029278 140.432137,35.52556 Z M194.591913,41.2060383 L197.064279,17.683048 C197.155127,16.8186818 197.671137,16.1654724 198.612323,15.7234002 C199.553509,15.281328 200.703229,15.1316752 202.061519,15.2744372 C203.255167,15.3998947 204.23546,15.7734209 205.002426,16.3950272 C205.769393,17.0166334 206.107446,17.7596085 206.016598,18.6239747 L205.776499,20.9083595 C206.590804,19.4958069 207.745777,18.306347 209.241452,17.3399441 C210.737127,16.3735413 212.225828,15.9682161 213.707598,16.1239564 L215.498062,16.3121418 C216.403589,16.4073164 217.152652,16.9021898 217.745274,17.7967767 C218.337897,18.6913635 218.575802,19.6943059 218.458997,20.8056338 C218.337865,21.9581221 217.894472,22.9102643 217.128805,23.6620892 C216.363138,24.4139141 215.527554,24.7422343 214.622027,24.6470596 L212.831563,24.4588743 C211.061671,24.2728511 209.407837,24.9625242 207.870014,26.5279144 C206.33219,28.0933046 205.42053,30.2342573 205.135006,32.9508367 L204.161633,42.2118565 C204.083763,42.9527417 203.528757,43.5810452 202.496598,44.0967858 C201.464439,44.6125264 200.289813,44.8011759 198.972684,44.66274 C197.655554,44.5243041 196.575607,44.1090929 195.732809,43.417094 C194.890011,42.7250951 194.509716,41.9880839 194.591913,41.2060383 Z M217.542278,32.8404332 L217.542278,28.4948182 C217.542278,24.9769218 218.928722,21.9246751 221.701652,19.3379866 C224.474582,16.7512981 227.785494,15.4579733 231.634487,15.4579733 C235.442092,15.4579733 238.753004,16.7409515 241.567321,19.3069465 C244.381638,21.8729415 245.788775,24.9355348 245.788775,28.4948182 L245.788775,32.8404332 C245.788775,36.3169425 244.371291,39.3795358 241.536281,42.0283048 C238.70127,44.6770738 235.400705,46.0014385 231.634487,46.0014385 C227.868268,46.0014385 224.57805,44.6770738 221.763733,42.0283048 C218.949415,39.3795358 217.542278,36.3169425 217.542278,32.8404332 Z M227.164711,32.8404332 C227.164711,34.0820436 227.599268,35.1891297 228.468396,36.1617246 C229.337523,37.1343195 230.392876,37.6206096 231.634487,37.6206096 C232.876097,37.6206096 233.941797,37.1343195 234.831618,36.1617246 C235.721438,35.1891297 236.166342,34.0820436 236.166342,32.8404332 L236.166342,28.4948182 C236.166342,27.2945947 235.711092,26.2185484 234.800578,25.2666471 C233.890063,24.3147457 232.83471,23.8388021 231.634487,23.8388021 C230.434263,23.8388021 229.389257,24.3147457 228.499436,25.2666471 C227.609615,26.2185484 227.164711,27.2945947 227.164711,28.4948182 L227.164711,32.8404332 Z" id="Tomatoro" fill="#172B4D"></path>
                    <g id="icon-tomato-active" transform="translate(155.257217, 7.321388)">
                        <g id="Group">
                            <path d="M20.5,39.7188151 C31.8218374,39.7188151 41,32.7170848 41,22.6906345 C41,12.6653041 34.8122052,6.53430441 20.5,6.43646213 C6.1877948,6.34080872 0,12.6653041 0,22.6906345 C0,32.7170848 9.17816263,39.7188151 20.5,39.7188151 Z" id="Oval-3" fill="#E54728"></path>
                            <path d="M25.5824631,8.1004899 C25.454201,8.03692156 25.3221215,7.97811659 25.18737,7.9233378 C25.0698918,7.87564737 25.0949907,7.7694355 25.2285017,7.74006137 C25.2379495,7.73796321 25.247302,7.73592177 25.2568453,7.73376691 C27.2536878,7.28481904 28.4814348,6.16724107 28.9021994,5.72640227 C28.9943878,5.62977386 28.9162281,5.50694689 28.739486,5.47076794 C27.9331716,5.30586451 25.7677942,4.95104996 23.7709517,5.39999783 C22.313688,5.72759312 21.2661187,6.41130722 20.642845,6.92824657 C20.5723199,6.9867113 20.4276433,6.9867113 20.3572137,6.92824657 C19.73394,6.41130722 18.6863707,5.72764982 17.229107,5.39999783 C15.2322645,4.95104996 13.0668871,5.30586451 12.2605728,5.47076794 C12.0837352,5.50689018 12.0055755,5.62977386 12.0978593,5.72640227 C12.518433,6.16718437 13.7463709,7.28481904 15.7432134,7.73376691 C15.7526613,7.73586506 15.7620138,7.73796321 15.7715571,7.74006137 C15.9049726,7.7694355 15.9301669,7.87564737 15.8126887,7.9233378 C15.6779372,7.97805988 15.5458578,8.03697826 15.4175956,8.1004899 C13.7778639,8.91298518 13.2331316,10.2077719 13.07853,10.7061682 C13.0446512,10.8153855 13.1861785,10.9163236 13.373132,10.9160968 C14.2259223,10.9151895 16.4674554,10.8293921 18.1071871,10.0168968 C18.1082369,10.0163864 18.1093821,10.0158194 18.1104319,10.015309 C18.2267648,9.95758147 18.4008348,10.0059524 18.4005485,10.0960028 C18.4005485,10.0968534 18.4005485,10.0976473 18.4005485,10.0985546 C18.4005485,11.3671995 19.7252556,12.445026 20.2701787,12.8348287 C20.389661,12.9202859 20.6106841,12.9202859 20.7301663,12.8348287 C21.2751848,12.445026 22.5997965,11.3672562 22.5997965,10.0985546 C22.5997965,10.097704 22.5997965,10.0969101 22.5997965,10.0960028 C22.5997011,10.0058957 22.7735802,9.95752476 22.8899132,10.015309 C22.8909629,10.0158194 22.8921081,10.0163864 22.8931579,10.0168968 C24.5328897,10.8293921 26.7744227,10.9151328 27.627213,10.9160968 C27.8141665,10.9162669 27.9556938,10.8154422 27.921815,10.7061682 C27.7668317,10.2078287 27.2220994,8.91298518 25.5824631,8.1004899 Z" id="Shape" fill="#00A155" fill-rule="nonzero"></path>
                            <path d="M20.5495688,8.66448713 C19.993248,8.66448713 19.5423284,8.21353077 19.5423284,7.6572468 C19.5423284,5.04209984 20.7545999,2.7290547 22.5200906,1.46875639 C22.9728961,1.14552809 23.6020554,1.25054145 23.9251299,1.70341734 C24.2482068,2.15617748 24.1431711,2.78517612 23.6905026,3.10827261 C22.4116488,4.02125332 21.5568091,5.71059566 21.5568091,7.6572468 C21.5568091,8.21351488 21.1058368,8.66448713 20.5495688,8.66448713 Z" id="Shape" fill="#006539" fill-rule="nonzero"></path>
                        </g>
                    </g>
                </g>
            </g>
        </g>
    </g>
</svg>