<?xml version="1.0" encoding="UTF-8" standalone="no"?>
<svg width="110px" height="42px" viewBox="0 0 110 42" version="1.1" xmlns="http://www.w3.org/2000/svg" xmlns:xlink="http://www.w3.org/1999/xlink">
    <!-- Generator: Sketch 45.1 (43504) - http://www.bohemiancoding.com/sketch -->
    <title>logo-labs-white</title>
    <desc>Created with Sketch.</desc>
    <defs></defs>
    <g id="Page-1" stroke="none" stroke-width="1" fill="none" fill-rule="evenodd">
        <g id="Tomatoro---Master" transform="translate(-913.000000, -1839.000000)" fill="#FFFFFF">
            <g id="logo-labs-white" transform="translate(913.000000, 1839.000000)">
                <polygon id="Fill-1" points="46.1717205 24.4857639 39.8181378 11.98034 24.7970748 41.5467107 37.9182559 41.5467107"></polygon>
                <path d="M72.5238661,22.6458294 L72.5238661,11.9801687 L57.5707953,11.9801687 L57.5707953,41.5465394 L72.5238661,41.5465394 L72.5238661,30.881307 C75.8017795,30.881307 78.6929606,29.2496249 80.4152835,26.7633541 C78.6929606,24.2775115 75.8017795,22.6458294 72.5238661,22.6458294" id="Fill-2"></path>
                <polygon id="Fill-4" points="94.7669055 11.9803828 94.7669055 26.7635682 87.3124567 26.7635682 87.3124567 41.5467535 102.265528 41.5467535 102.265528 26.7635682 109.719976 26.7635682 109.719976 11.9803828"></polygon>
                <polygon id="Fill-6" points="0.216535433 11.9803828 0.216535433 41.5467535 7.69307087 41.5467535 15.1696063 41.5467535 15.1696063 26.7635682 15.1696063 11.9803828"></polygon>
                <polygon id="Fill-8" fill-opacity="0.7" points="54.8396339 41.5467535 46.1717205 24.4858068 37.9182559 41.5467535"></polygon>
                <path d="M80.4151535,26.7635254 C81.4666496,25.2457313 82.0829094,23.4093932 82.0829094,21.4309091 C82.0829094,16.2113246 77.8033031,11.98034 72.5237362,11.98034 L72.5237362,22.6460006 C75.8016496,22.6460006 78.6932638,24.2776827 80.4151535,26.7635254" id="Fill-10" fill-opacity="0.7"></path>
                <path d="M87.2903701,19.3719755 C87.2903701,23.4543919 90.6375748,26.7635682 94.7669055,26.7635682 L94.7669055,11.9803828 C90.6375748,11.9803828 87.2903701,15.2895591 87.2903701,19.3719755" id="Fill-12" fill-opacity="0.7"></path>
                <path d="M102.265484,26.7635682 L102.265484,41.5467535 C106.394815,41.5467535 109.74202,38.2375772 109.74202,34.1551608 C109.74202,30.0727445 106.394815,26.7635682 102.265484,26.7635682" id="Fill-14" fill-opacity="0.7"></path>
                <polygon id="Fill-16" fill-opacity="0.7" points="15.1696063 41.546882 22.6461417 41.546882 22.6461417 26.7636966 15.1696063 26.7636966"></polygon>
                <path d="M72.5238661,30.8812641 L72.5238661,41.5469248 C77.803,41.5469248 82.0830394,37.315512 82.0830394,32.0963557 C82.0830394,30.1174434 81.4667795,28.2815335 80.4152835,26.7637394 C78.6929606,29.2495821 75.8017795,30.8812641 72.5238661,30.8812641" id="Fill-18" fill-opacity="0.7"></path>
                <polygon id="Fill-20" points="3.93938583 5.4447489 3.96147244 5.4447489 3.96147244 0.151522512 5.40706299 0.151522512 5.40706299 7.8804979 3.61155118 7.8804979 1.68395276 2.46824563 1.66186614 2.46824563 1.66186614 7.8804979 0.216708661 7.8804979 0.216708661 0.151522512 2.03430709 0.151522512"></polygon>
                <polygon id="Fill-22" points="20.0674646 1.42899558 17.2758898 1.42899558 17.2758898 3.24735136 19.9033307 3.24735136 19.9033307 4.52452472 17.2758898 4.52452472 17.2758898 6.60319609 20.1770315 6.60319609 20.1770315 7.88036945 15.6986457 7.88036945 15.6986457 0.151822218 20.0674646 0.151822218"></polygon>
                <path d="M33.4252323,4.96860257 L32.6695236,1.49373196 L32.6483031,1.49373196 L31.8925945,4.96860257 L33.4252323,4.96860257 Z M33.6335394,0.151479697 L35.702752,7.88045508 L34.0605472,7.88045508 L33.6989331,6.24577593 L31.6188937,6.24577593 L31.2572795,7.88045508 L29.6150748,7.88045508 L31.6842874,0.151479697 L33.6335394,0.151479697 Z" id="Fill-24"></path>
                <path d="M47.6812323,3.52868914 C48.0610354,3.52868914 48.3529252,3.44049011 48.5573346,3.2636639 C48.761311,3.08683768 48.8635157,2.78927299 48.8635157,2.37054166 C48.8635157,1.65638639 48.4993031,1.2988806 47.7687126,1.2988806 L47.0246969,1.2988806 L47.0246969,3.52868914 L47.6812323,3.52868914 Z M48.3602874,0.151436882 C49.0168228,0.151436882 49.5282795,0.315846728 49.8929252,0.644238271 C50.2580039,0.972629813 50.4407598,1.47228161 50.4407598,2.14362182 C50.4407598,2.6625404 50.3346575,3.08683768 50.1228858,3.41522922 C49.9115472,3.74362077 49.5828465,3.95469903 49.1372165,4.04846402 L49.1372165,4.06987155 C49.5317441,4.12810004 49.8197362,4.25397633 50.0024921,4.44878487 C50.185248,4.64402157 50.2982795,4.95742784 50.3420197,5.39114444 C50.356311,5.53500305 50.3675709,5.69213434 50.3749331,5.86168199 C50.3818622,6.03122964 50.3892244,6.22090038 50.3970197,6.42983789 C50.411311,6.84129066 50.4329646,7.15512508 50.4624134,7.3717693 C50.5057205,7.58798538 50.6014291,7.7361255 50.747374,7.81576152 L50.747374,7.88041227 L49.0393425,7.88041227 C48.9592244,7.77209015 48.9072559,7.64792647 48.8860354,7.50706491 C48.8635157,7.3666315 48.8492244,7.22020398 48.8422953,7.06863865 L48.7985551,5.58552483 C48.7833976,5.28282232 48.7067441,5.04434242 48.5677283,4.87136956 C48.4295787,4.69796855 48.1961535,4.61148212 47.8674528,4.61148212 L47.0246969,4.61148212 L47.0246969,7.88041227 L45.4474528,7.88041227 L45.4474528,0.151436882 L48.3602874,0.151436882 Z" id="Fill-26"></path>
                <path d="M62.0031457,5.6940182 C62.0031457,5.87426962 62.017437,6.03825131 62.0468858,6.18639144 C62.0763346,6.33453156 62.1304685,6.45869525 62.2105866,6.56016695 C62.2911378,6.66078235 62.3989724,6.73999022 62.5340906,6.79779055 C62.6687756,6.85601904 62.8389724,6.88470513 63.0429488,6.88470513 C63.2846024,6.88470513 63.5011378,6.80720987 63.6942874,6.65221934 C63.8878701,6.4963725 63.984878,6.25703629 63.984878,5.93206996 C63.984878,5.75866895 63.960626,5.60881622 63.9134213,5.48251178 C63.8662165,5.35663549 63.7878307,5.24317557 63.6782638,5.14170387 C63.5686969,5.04066032 63.4244843,4.94860793 63.2451929,4.86597486 C63.0672008,4.78248548 62.8459016,4.69813981 62.5830276,4.61122523 C62.2331063,4.4960527 61.9299567,4.36974826 61.6744449,4.23274006 C61.4185,4.09573185 61.2058622,3.93474721 61.0335,3.75064244 C60.862437,3.56653766 60.7359803,3.35374679 60.6558622,3.11184168 C60.5757441,2.87079287 60.5354685,2.59078235 60.5354685,2.27352272 C60.5354685,1.50841753 60.7511378,0.938120871 61.1816102,0.563060909 C61.6120827,0.187572796 62.2036575,4.28150643e-05 62.9554685,4.28150643e-05 C63.3058228,4.28150643e-05 63.6293268,0.0381482222 63.924248,0.113930886 C64.2200354,0.189713549 64.4759803,0.312592784 64.6916496,0.481712287 C64.9060197,0.651259941 65.0744843,0.867904166 65.194878,1.13121681 C65.3152717,1.39452946 65.3759016,1.71050463 65.3759016,2.07828603 L65.3759016,2.29493025 L63.8644843,2.29493025 C63.8644843,1.9267207 63.7986575,1.64328498 63.667437,1.44547938 C63.5357835,1.24681748 63.3166496,1.14748653 63.0100354,1.14748653 C62.8355079,1.14748653 62.6891299,1.17274742 62.5726339,1.2232692 C62.4557047,1.27379097 62.3621614,1.34058247 62.2928701,1.42321555 C62.2231457,1.50670492 62.1759409,1.60218252 62.1512559,1.71050463 C62.1252717,1.81839859 62.1127126,1.93057406 62.1127126,2.04617473 C62.1127126,2.28379834 62.1633819,2.48417284 62.2660197,2.64687008 C62.3677913,2.80913918 62.5869252,2.95856375 62.9225551,3.09557195 L64.138185,3.61534683 C64.437437,3.74550463 64.681689,3.88080023 64.871374,4.02166179 C65.0610591,4.1620952 65.2126339,4.31366053 65.3260984,4.47592962 C65.4391299,4.63819872 65.5175157,4.81716568 65.5612559,5.01154608 C65.6058622,5.20678277 65.6270827,5.42299884 65.6270827,5.66147875 C65.6270827,6.47710572 65.3884606,7.07052251 64.9099173,7.44215727 C64.4322402,7.81379203 63.7657441,7.9996094 62.9121614,7.9996094 C62.0209016,7.9996094 61.3847205,7.80822607 61.0005866,7.42588754 C60.617752,7.04354902 60.4259016,6.4946599 60.4259016,5.78050463 L60.4259016,5.46667021 L62.0031457,5.46667021 L62.0031457,5.6940182 Z" id="Fill-28"></path>
                <path d="M77.0646142,5.34212119 C77.0897323,5.70647738 77.1412677,6.00232948 77.2179213,6.22967747 C77.2945748,6.45702546 77.4032756,6.62314791 77.5457559,6.72761666 C77.6882362,6.83208542 77.876189,6.88474795 78.1096142,6.88474795 C78.3434724,6.88474795 78.5314252,6.83208542 78.6739055,6.72761666 C78.8163858,6.62314791 78.9259528,6.45702546 79.0026063,6.22967747 C79.0792598,6.00232948 79.1299291,5.70647738 79.1559134,5.34212119 C79.1810315,4.97776499 79.1940236,4.53548538 79.1940236,4.0157105 C79.1940236,3.49636377 79.1810315,3.05665306 79.1559134,2.69529392 C79.1299291,2.33479108 79.0792598,2.03851084 79.0026063,1.80773764 C78.9259528,1.57696444 78.8163858,1.40912939 78.6739055,1.30423248 C78.5314252,1.20019188 78.3434724,1.14752935 78.1096142,1.14752935 C77.876189,1.14752935 77.6882362,1.20019188 77.5457559,1.30423248 C77.4032756,1.40912939 77.2945748,1.57696444 77.2179213,1.80773764 C77.1412677,2.03851084 77.0897323,2.33479108 77.0646142,2.69529392 C77.0386299,3.05665306 77.0265039,3.49636377 77.0265039,4.0157105 C77.0265039,4.53548538 77.0386299,4.97776499 77.0646142,5.34212119 M75.5311102,2.39772922 C75.5865433,1.90321523 75.7065039,1.47977425 75.8927244,1.12612182 C76.0789449,0.772469388 76.3474488,0.496312224 76.6973701,0.298078477 C77.0477244,0.099416579 77.5189055,8.56301285e-05 78.1096142,8.56301285e-05 C78.701622,8.56301285e-05 79.171937,0.099416579 79.5222913,0.298078477 C79.8722126,0.496312224 80.1407165,0.772469388 80.326937,1.12612182 C80.5131575,1.47977425 80.6331181,1.90321523 80.6885512,2.39772922 C80.742685,2.89224321 80.7704016,3.43128487 80.7704016,4.0157105 C80.7704016,4.60784284 80.742685,5.14902525 80.6885512,5.63968588 C80.6331181,6.13034652 80.5131575,6.5529312 80.326937,6.90615548 C80.1407165,7.25980791 79.8722126,7.53082727 79.5222913,7.7179291 C79.171937,7.90545908 78.701622,7.99965222 78.1096142,7.99965222 C77.5189055,7.99965222 77.0477244,7.90545908 76.6973701,7.7179291 C76.3474488,7.53082727 76.0789449,7.25980791 75.8927244,6.90615548 C75.7065039,6.5529312 75.5865433,6.13034652 75.5311102,5.63968588 C75.4765433,5.14902525 75.4492598,4.60784284 75.4492598,4.0157105 C75.4492598,3.43128487 75.4765433,2.89224321 75.5311102,2.39772922" id="Fill-30"></path>
                <polygon id="Fill-32" points="95.2671024 0.151650957 95.2671024 1.42882432 92.4755276 1.42882432 92.4755276 3.2471801 95.1029685 3.2471801 95.1029685 4.52478161 92.4755276 4.52478161 92.4755276 7.88062634 90.8982835 7.88062634 90.8982835 0.151650957"></polygon>
                <polygon id="Fill-34" points="109.74228 1.42899558 108.034248 1.42899558 108.034248 7.88036945 106.457004 7.88036945 106.457004 1.42899558 104.748972 1.42899558 104.748972 0.151822218 109.74228 0.151822218"></polygon>
            </g>
        </g>
    </g>
</svg>